<svg version="1.0" xmlns="http://www.w3.org/2000/svg" width="621.333" height="114.667" viewBox="0 0 466 86"><path d="M64 15.4c-3 .7-6.3 1.7-7.4 2.3-3.2 1.8-.3 2.2 5.4.7 3-.8 6.4-1.4 7.7-1.4 2.7 0 3.9-1.6 1.7-2.4-.9-.3-1.6-.6-1.7-.5-.1.1-2.7.6-5.7 1.3zm334 2.9c0 .7.9 3 2 5.2s2 6.1 2.1 9l.1 5 .8-3.9c.8-4.4.1-8-2.5-12-1-1.4-1.3-2.6-.8-2.6 1.1 0 3.6 4.7 5.2 9.5.8 2.5 1 2.6 1 .8.1-3.4-2.9-10.2-5-11.3-2.4-1.3-2.9-1.3-2.9.3zm-202 2.9c-4.1 6.7-3.7 17.6.7 22.8 2.4 2.9 5.3 4 5.3 2.1 0-.6-.9-2.6-2.1-4.6-1.8-2.9-2.1-4.8-1.7-10.9.2-5.2.8-8 2.1-9.3 2.2-2.5 2.2-3.3-.3-3.3-1.2 0-2.8 1.3-4 3.2zm2 2.3c-2.6 5.2-2.6 12.9 0 17.8 1.1 2 1.6 3.7 1.2 3.7-3.8 0-5.2-18.3-1.9-23.4 2.6-3.9 3-2.7.7 1.9zm147.4-2c-4.5 1.9-7.4 6.1-7.4 10.7 0 5.7 5.1 10.8 10.8 10.8 2.3 0 5.2-.4 6.6-1 2.3-.8 2.6-1.5 2.6-5.5V32h-4c-2.9 0-4 .4-4 1.5 0 .9.7 1.8 1.5 2.1 2.3.9.7 2.4-2.5 2.4-3.1 0-6-3-6-6.3 0-1 1.1-2.9 2.5-4.3 2.2-2.2 3.1-2.5 6.4-1.9 4.3.7 6.3-.8 4-3-2.2-2-7.1-2.5-10.5-1zm3.2 1.5c-4.1 1.3-6.3 3.6-6.9 7.7-.7 4.3.4 6.8 4.1 8.7 1.7 1 2.1 1.5 1.1 1.6-3.1 0-6.9-5-6.9-9.2 0-5 4.3-9.8 8.7-9.7l2.8.1-2.9.8zm6.4.4c0 1.1-1.9 1.5-2.5.6-.3-.5.1-1 .9-1 .9 0 1.6.2 1.6.4zm.8 12.4c.4 2.7-1.4 5.2-3.7 5.1-1.1 0-.9-.3.7-.9 3.2-1.3 2.7-4.9-.8-6.3-.9-.4-.4-.6 1-.4 1.8.1 2.6.9 2.8 2.5zM88.7 21.7c-.4.3-.7 1.6-.6 2.7.1 1.8.2 1.8.9-.4.5-1.6.8 1.1.8 7.5-.1 7.2-.3 8.9-.8 6l-.7-4-.2 4.7c-.1 4.2.2 4.8 1.9 4.8s2-.7 2-4.5c0-2.5.4-4.5.8-4.5.5 0 2.3 2 4.1 4.5 2.3 3.2 3.9 4.5 5.7 4.5 3.2 0 3-.9-1.1-6.3-1.9-2.5-3.5-4.9-3.5-5.4 0-.4 1.4-2.6 3.1-4.8l3-4-2.3-.3c-1.6-.3-3.1.6-5.3 3.2-1.6 2-3.3 3.6-3.7 3.6-.5 0-.8-1.8-.8-4 0-3.8-1.4-5.2-3.3-3.3zm9.5 6l-3 3.9 3.5 4.2c2 2.4 3.3 4.5 3.1 4.8-.6.5-7.8-8-7.8-9.1 0-1.2 6.2-8.6 6.7-8.1.3.3-.8 2.2-2.5 4.3zm26.8-1.2c0 3-.4 5.5-.8 5.5s-3-2.3-5.7-5c-2.7-2.8-5.5-5-6.2-5-1 0-1.3 2.2-1.1 8.7l.2 8.8.3-7.3c.2-3.9.8-7.2 1.4-7.2.5 0 3.5 2.5 6.7 5.5 3.1 3 6 5.5 6.5 5.5.4 0 .5-2.7.3-6-.3-3.3-.1-6.2.5-6.5 1.2-.8 1.5 14.2.3 15.4-.3.3-3.3-2.3-6.8-5.8-5.8-5.8-6.4-6.1-6.7-3.9-.2 1.2-.1 4.5.2 7.3l.6 5 .1-4.6c.1-2.5.4-4.8.7-5.1.4-.3 3.4 2 6.8 5.2s6.5 5.6 6.9 5.4c.5-.3.8-5.2.8-11V21h-2.5c-2.4 0-2.5.3-2.5 5.5zm14.1-2.6c-3 2.8-3.7 4.9-3.2 10 .3 3 2.9 7.1 4.7 7.1.9 0 .6-1.1-1.1-3.6-1.4-2-2.5-4.6-2.5-5.8 0-4.5 6-9.6 11.3-9.6 2.6 0 7.1 4.3 8.1 7.7.9 2.8-1.6 8.6-4.5 10.7-1.9 1.3-2 1.6-.6 1.6 1 0 2.9-1.2 4.2-2.6 3.8-4.1 3.5-11.5-.4-15.5-2.5-2.4-3.8-2.9-7.9-2.9-4.1 0-5.5.5-8.1 2.9zm24.3-1.4c-.7 1.7 3.3 18.3 4.7 19.9.5.6 2-1.6 3.6-5.2 1.4-3.4 3.1-6.2 3.7-6.2.6 0 2.2 2.5 3.5 5.6 1.3 3 2.9 5.3 3.5 5.1 1-.3 4.6-10.8 6.1-17.9.6-2.7.5-2.9-1.6-2.6-1.8.2-2.6 1.3-3.7 5.1-.7 2.6-1.7 4.5-2.2 4.2-.5-.3-1.6-2.5-2.6-5-.9-2.5-2.1-4.5-2.5-4.5-.5 0-2 2.3-3.5 5.1-1.4 2.8-2.7 4.9-3 4.6-.2-.2-1-2.4-1.7-4.7-1.3-4.6-3.3-6.2-4.3-3.5zm3.4 4.4c.7 2.1 1.2 4.5 1.2 5.4 0 3.6 2 2.4 4.4-2.8 1.4-3 2.7-5.5 3-5.5.3 0 1.9 2.6 3.5 5.7l2.9 5.8 1.2-3c.6-1.7 1.4-4.2 1.7-5.8.3-1.5 1-3 1.6-3.4.7-.4.8 0 .3 1.2-.3 1-1.4 4.7-2.2 8.1-.9 3.5-2 6.1-2.5 5.9-.4-.3-1.9-3-3.3-6.1-1.4-3-2.9-5.3-3.4-5-.5.3-1.9 3-3.2 6-1.3 3.1-2.7 5.6-3.2 5.6-.4 0-.8-.2-.8-.5 0-.5-2.8-11.3-3.6-13.7-.3-1-.1-1.8.4-1.8s1.4 1.7 2 3.9zm41.4 3.8c.2 9.7.2 9.7.5 2 .2-4.2.8-7.7 1.4-7.7.5 0 3.5 2.5 6.7 5.5 3.1 3 6 5.5 6.4 5.5.4 0 .5-2.7.3-6s.1-6.2.6-6.5c1.3-.9 1.6 14.1.3 15.4-.3.3-3.3-2.3-6.7-5.7-3.4-3.4-6.5-6.2-6.9-6.2-.9 0-.4 12.7.5 13.6.4.4.7-1.3.7-3.8 0-2.4.3-4.7.6-5 .3-.4 3.3 1.9 6.6 5 3.3 3.2 6.4 5.8 6.9 6 .5.2.9-4.5.9-10.7V21h-2.5c-2.4 0-2.5.3-2.5 5.5 0 3-.4 5.5-.8 5.5s-3.2-2.5-6.2-5.5-5.8-5.5-6.2-5.5c-.4 0-.7 4.4-.6 9.7zm30-8.4c-5.8 3.2-7.4 11.9-3.2 16.5 3.3 3.5 4.2 2.6 1.5-1.4-3.5-5.1-3.2-8 1.1-12 4.8-4.6 9.8-4.7 13.4-.2 4.4 5.6 2.3 13.4-4.3 16.3-2 .9-2.5 1.4-1.4 1.5 5.4.1 9.6-4.8 9.7-11.3 0-4-.5-5.3-2.9-7.8-2.4-2.3-3.8-2.9-7.3-2.9-2.4.1-5.3.6-6.6 1.3zm32.8.2c1.1 1.3.8 1.4-1.6.9-3.6-.7-7 1.6-6.1 4 .4.9 2.7 2.8 5.2 4.4 4.8 2.9 5.8 5.7 2.9 8.6-1.7 1.8-7.9 2.2-8.9.5-1.1-1.7.1-2 2.9-.8 2.3 1.1 3 1 4.7-.7 2.6-2.6 1.8-4.3-3.6-7.6-4.7-2.8-5.9-6-3.3-8.6.9-.9.9-1.2 0-1.2-1.8 0-3.4 3.9-2.8 6.6.4 1.4 2.2 3.2 4.6 4.4 4.6 2.3 5.6 6 1.7 6-1.3 0-2.8-.5-3.4-1.1-.8-.8-1.4-.6-2.2 1-.9 1.7-.8 2.2.8 3.1 3.3 1.7 8.9 1.2 11.1-1 3.9-3.9 2.3-7.8-4.7-11.4-5.2-2.6-3.8-6.4 1.5-4.4 1.3.4 2.8.6 3.3.2 1.4-.9 1-3.1-.7-3.8-2.4-.9-2.8-.7-1.4.9zm8 .3c0 1.7.6 2.2 2.5 2.2 2.4 0 2.4.2 2.7 8.7.3 8.2.4 8.8 2.5 9.1 2.1.3 2.2 0 2.5-8.5.3-7.9.5-8.8 2.3-9.2 2.2-.4 3.6-2.1 2.9-3.3-.3-.4-3.5-.7-7.2-.6l-6.7.1 6.5.7c3.6.4 5.3.7 3.8.8-3.3.2-4 2.2-3.8 10.5.2 9.6-.3 9.2-.9-.8-.6-8.2-.8-9-2.5-8.7-1.1.2-2.6-.4-3.3-1.4-1.2-1.7-1.3-1.6-1.3.4zm21.7 8.2c-2.6 5.5-4.7 10.5-4.7 11 0 1.6 4 1.2 4.6-.5.4-1.1 2.1-1.5 5.5-1.5 3.5 0 5.1.4 5.5 1.5.8 1.9 4.4 2 4.4.1S307.1 21 306.2 21c-.5 0-2.9 4.5-5.5 10zm12.7 8c.6 2.3.6 2.3-.7.7-1.9-2.3-10.3-2.4-12.9 0-2.5 2.2-2.2.8 1-5.7 5.9-11.6 5-11.3 8.7-3.9 1.8 3.5 3.5 7.5 3.9 8.9z"/><path d="M304 31c-1.1 2.1-2 4.4-2 5 0 .5 2 1 4.5 1s4.5-.2 4.5-.4c0-1-4-9.6-4.4-9.6-.3 0-1.5 1.8-2.6 4zm3.7 1.6c.7 2-.8 3.6-2.5 2.5-1.4-.8-.6-4.1.9-4.1.5 0 1.2.7 1.6 1.6zM322 32v11h6c5.3 0 6-.2 6-1.9 0-1.6-.8-2-3.7-2.3l-3.8-.3-.3-8.8c-.3-7.9-.5-8.7-2.2-8.7-1.9 0-2 .7-2 11zm3-.5c0 8.7.1 9 4.2 8.6.9-.1 1.9.3 2.3.9.5.8-.7 1-3.7.8l-4.3-.3-.3-9.3c-.2-5.9.1-9.2.8-9.2.6 0 1 3.3 1 8.5zm39 .5c0 10.3.1 11 2 11s2-.7 2-11-.1-11-2-11-2 .7-2 11zm2.7-2.7c.2 2.8-.1 6.5-.6 8.2-.7 2.3-.9 1.1-1-5.9-.1-9.5 1-11.2 1.6-2.3zm11.3 1.9c-2.8 5.7-5 10.6-5 11 0 1.5 4.8.8 5.4-.7.4-1.1 2-1.5 5.5-1.5 3.4 0 5.1.4 5.5 1.5.6 1.6 4.6 2.1 4.6.6 0-.5-1.5-4-3.3-7.7-1.9-3.8-3.9-8.4-4.7-10.2-.7-1.7-1.7-3.2-2.2-3.2-.5 0-3.1 4.6-5.8 10.2zm10.1 1.1c2 4.5 3.5 8.4 3.2 8.7-.2.3-.9-.3-1.4-1.3-1.4-2.5-11.4-2.5-12.8 0-.5 1-1.2 1.6-1.4 1.3-.6-.6 7.4-17 8.2-17 .3 0 2.2 3.7 4.2 8.3z"/><path d="M381.2 31.4c-1.2 2.4-2.2 4.6-2.2 5 0 .3 2 .6 4.5.6s4.5-.3 4.5-.7c0-1.5-3.3-9.3-4-9.3-.3 0-1.6 2-2.8 4.4zm4.1 1.6c.4 1.6 0 2-1.9 2-2.2 0-2.3-.3-1.4-2 .6-1.1 1.5-2 1.9-2 .5 0 1.1.9 1.4 2zm-143.8-9c-9 3.4-6.7 16 2.9 16 6.2 0 10-8.2 6.2-13.3-1.7-2.2-6.5-3.7-9.1-2.7zm5.6 2.1c4.6 2.4 4.2 9.5-.6 11.7-3.3 1.5-6.3.4-8-2.9-3.1-6 2.7-12 8.6-8.8zm-106.1.4c-5 5.3-1.1 13.5 6.4 13.5 6.7 0 10.2-8.8 5.6-13.8-3-3.2-8.9-3-12 .3zm9.1-.4c6.9 3.6 1.8 14.7-5.5 11.9-5-1.9-5.7-8.4-1.3-11.5 2.5-1.8 4.1-1.9 6.8-.4zM48 25.4c0 .2.7.7 1.6 1 .8.3 1.2.2.9-.4-.6-1-2.5-1.4-2.5-.6zm-16.9 4.5c-1.8 2.2-2.7 4.2-2.2 4.5.5.3 2.1-1.4 3.4-3.9 1.4-2.5 2.4-4.5 2.2-4.5-.2 0-1.7 1.8-3.4 3.9zM405.2 35c0 1.4.2 1.9.5 1.2.2-.6.2-1.8 0-2.5-.3-.6-.5-.1-.5 1.3zM30.5 43c-.3.5-.1 1 .4 1 .6 0 1.1-.5 1.1-1 0-.6-.2-1-.4-1-.3 0-.8.4-1.1 1zm81.3-.3c.7.3 1.6.2 1.9-.1.4-.3-.2-.6-1.3-.5-1.1 0-1.4.3-.6.6zm97 0c.7.3 1.6.2 1.9-.1.4-.3-.2-.6-1.3-.5-1.1 0-1.4.3-.6.6zm189.9 0c-.9.9-.9 4.3.1 4.3.4 0 1.6-.8 2.7-1.7 1.8-1.4 1.8-1.5.1-.9-1.4.5-1.7.2-1.2-.9.5-1.5-.5-2.1-1.7-.8zm-377.4 1c.9.2 2.5.2 3.5 0 .9-.3.1-.5-1.8-.5-1.9 0-2.7.2-1.7.5zm20.3 7.2c-.4.5.3.7 1.4.4 2.3-.6 2.6-1.3.6-1.3-.8 0-1.7.4-2 .9z"/></svg>