<svg version="1.0" xmlns="http://www.w3.org/2000/svg" width="2560" height="1440" viewBox="0 0 1920 1080"><path d="M1733.5 127.1c-2.2.4-5.2.6-6.6.3-1.4-.3-7 .2-12.5 1-5.4.8-12.1 1.4-14.9 1.3-10.1-.1-39.9 5.7-41.4 8.1-.3.6-3.5 1.5-7.1 2.2-12.7 2.2-38.6 8.1-42 9.6-7.8 3.2-47.1 14.1-82 22.8-5.8 1.4-16.1 4.2-23 6.1-22.5 6.2-59 14.5-64.3 14.5-7.1 0-35.1-3.7-46.2-6.1-11-2.3-26.6-4.6-40-5.9-5.5-.5-15.6-1.8-22.5-2.9-6.9-1.1-17.7-2.5-24-3.1-6.3-.6-20.7-2.7-31.8-4.6-12.9-2.1-23.7-3.4-29.5-3.4-10.4 0-26.6-2.2-84.2-11.5-22-3.5-42.2-6.4-45-6.3-6.9.1-28-1.8-39.5-3.7-5.2-.9-15.3-2-22.5-2.5-13.2-1-36.7-3.2-53-5-4.9-.5-18.3-1-29.7-1-22.4 0-31.4 1.1-40.8 5.2-3 1.4-6.2 2.3-7.1 2.1-.8-.2-6.9 1.7-13.5 4.2-6.5 2.6-13.9 5.3-16.4 6.2-8.4 2.8-24.4 11.2-39.7 20.8-8.3 5.2-16.3 9.5-17.6 9.5-1.4 0-11 5.7-23.4 13.9-22.1 14.6-25.2 16.4-29.4 17.4-1.5.4-6.2 3.2-10.5 6.3-4.4 3.1-9.3 6.1-10.9 6.5-1.7.5-7.3 3.4-12.5 6.5-10.9 6.6-18.4 10.4-20.3 10.4-2.1 0-8.9 3.9-17.2 10.1-10.8 8-27.7 18.9-29.3 18.9-.7 0-3.9 1.7-7 3.8-3.1 2.1-7 4.5-8.7 5.4-1.6.8-5.2 2.8-8 4.5-12.1 7.3-33.8 19.3-34.9 19.3-.7 0-6.1 2.9-12.1 6.5s-11.3 6.5-11.6 6.5c-.4 0-1.2 1.3-1.8 2.9-1.8 4.1.6 9.1 5.9 12.7 2.4 1.6 7 5.6 10.4 9 7.2 7.1 14.6 12.4 17.5 12.4 1.1 0 3.2.5 4.7 1 1.5.6 7.7 1.3 13.8 1.6 13 .7 24-1.1 32.5-5.4 5.6-2.8 20-16.7 24.8-23.8 1.4-2.2 3.4-4.7 4.4-5.7 1.1-1 2.6-3.2 3.5-4.9 2.1-4 20.4-21.8 22.4-21.8.9 0 4-2.5 7-5.5s6-5.5 6.6-5.5c.7 0 3.2-2.4 5.6-5.3 2.3-2.8 4.8-5.4 5.3-5.6.6-.2 4.2-3.5 8-7.2 5.4-5.2 7.4-6.6 8.6-5.9 2.2 1.3 7.3-2.7 14.9-11.5 6.4-7.3 20.3-18.5 23.1-18.5 2.3 0 4.1-2.5 3.8-5.2-.2-1.4.5-3.2 1.8-4.5 2.9-2.9 17.5-12.6 29.4-19.5 5.2-3.1 10.2-6.4 10.9-7.3 2-2.4 14.1-10.4 23-15.3 9.2-5 25.2-11.3 35.7-14.2 4.3-1.1 8.7-2.5 9.8-3 1.1-.5 7.6-2.1 14.5-3.6 6.9-1.4 14.5-3.2 17-3.9 2.5-.8 9.7-1.7 16-2 6.3-.3 13.6-1.1 16.3-1.8 3.6-.8 8-.8 18 .2 7.2.6 19.7 1.6 27.7 2.1 8 .4 16.5 1.3 19 1.9 2.5.5 10.8 2 18.5 3.1 18.3 2.7 49.9 8.2 75.3 13.1 11.2 2.1 21.7 3.9 23.4 3.9 1.6 0 8 1.1 14.1 2.5 6.2 1.4 13.9 2.8 17.2 3.1 7.1.6 68 10 74.3 11.5 2.4.5 10.7 1.6 18.5 2.4 7.7.8 18.5 2.2 23.9 3.1 5.4.8 10.2 1.3 10.7.9.9-.5 34.9 6 35.8 6.8.6.7-119.4 30.7-122.6 30.7-1.1 0-10.6 2.4-21.3 5.4-27.6 7.7-54.4 13.2-56.4 11.5-1.2-.9-2.9-1-8.2-.1-3.7.7-12.5 2.1-19.7 3.2-7.1 1.1-24.3 4-38.1 6.3-22.2 3.8-25.3 4.1-26.1 2.8-.9-1.4-2-1.4-10.2.2-18.9 3.6-27.4 6-27.8 7.6-.3 1.3-5.9 3-21.6 7-11.7 2.9-23.4 5.7-26.2 6.3-2.7.6-10.6 2.6-17.5 4.5-18.4 5.2-35.2 9.2-36.6 8.6-.7-.2-8.6 1.8-17.6 4.6-8.9 2.8-27.1 7.9-40.3 11.5-13.2 3.5-30.3 8.2-38 10.5-7.7 2.2-18.2 5-23.5 6.1-5.2 1.2-9.7 2.5-10 2.9-.5.8-11.1 5.2-35 14.2-13.9 5.3-24.2 9.8-26 11.4-.8.7-5.1 2.2-9.6 3.3-4.4 1.1-14.3 4.9-22 8.4-7.6 3.6-16 7.3-18.5 8.2-5.1 1.9-8.5 4.9-7.4 6.6.4.7-.2 1.8-1.4 2.6s-2.1 2.1-2.1 2.7c0 .7-2.5 3.7-5.6 6.7-3 3-8.3 9.2-11.6 13.7-3.4 4.6-6.5 8.3-6.9 8.3-1 0-12.9 21.5-12.9 23.4 0 2.8-5.4 11.6-7.2 11.6-2 0-2.1.5-4.8 13.5-1.2 6-2.7 10.5-3.6 11.2-3.2 2.3-8 29.2-5.5 30.7 1.4.9 1.5 5.3.1 6.1-.5.3-1 5.2-1 10.8 0 5.6-.4 12.9-1 16.2-.5 3.3-1 8.2-1.1 11 0 2.7-.6 6.7-1.2 8.8l-1.2 3.9-2.4-2.6-2.4-2.6 2.2-2.4c3.1-3.3 1.9-5-3.2-4.2-5.3.9-19.8 5.6-21.7 7.1-2.6 2.2-15.6 4.7-21.2 4.2-11.8-1-23.9-4.5-36.2-10.5-6.6-3.3-14.6-6.8-17.6-7.7-3-1-13.6-5.6-23.5-10.2-9.9-4.7-27.1-12.7-38.2-17.9-11.1-5.1-27.1-12.9-35.7-17.3-8.5-4.5-16.3-8.1-17.3-8.1-1.9 0-3.3-.7-49.5-23.4-16.3-8-29.9-14.6-30.3-14.6-.4 0-6.9-2.9-14.6-6.5-7.7-3.6-16.4-7.2-19.3-7.9-7.3-1.9-16.6-6.8-70.8-37.5-3.2-1.8-6.2-3-6.8-2.6-.6.3-7.4-2.7-15.3-6.8-16.7-8.8-19.7-10.3-29.7-15.2-22.1-11-57.2-29.7-72-38.5-6.6-3.9-45-21.3-54.1-24.5-2-.8-5-2-6.5-2.8-2.1-1-4.5-1.2-8.6-.8-3.2.4-6.2.3-6.7-.2-1.4-1.4-3.1.1-4.8 4.2-2.3 5.2-3.1 9-5.2 23.7-1.8 12.1-1.8 14.3-.6 28 3 33 6.3 50.5 12.1 63.2 1.3 2.9 2.4 6.3 2.4 7.5 0 2.5 3.7 8.6 8.2 13.3l2.9 3.1 4-1.8c6.3-3.1 7.3-5.5 5.9-14.1-.6-4-1.3-8.2-1.4-9.3-.2-1.1-.9-4-1.6-6.5-.7-2.5-1.3-5.4-1.2-6.5.1-1.1-.7-4.9-1.7-8.5-1.1-3.6-1.9-7.2-1.9-8 0-1.4-1.9-14.1-4.2-27.5-1.4-7.8-3.1-25.3-3.3-33.5l-.2-6.5 4.5.3c2.5.2 6.1 1.2 8 2.1 11.1 5.6 25.9 12.6 35.8 17 6.2 2.8 13.7 6.5 16.5 8.4 2.9 1.9 7.2 4.4 9.6 5.7 2.4 1.2 5.2 2.9 6.2 3.9 1 .9 7.3 4.5 14.1 8 15.1 7.8 52.3 28.2 58.6 32.1 8.3 5.1 23.4 13.6 35.3 19.8 14.9 7.8 42.7 23.3 65.1 36.4 9.7 5.7 27 15.8 38.5 22.4 24.8 14.5 99.9 52.8 102 52 1.3-.5 7.9 2.5 34.8 16 5 2.5 22.8 11.5 39.6 20 16.9 8.5 31.1 15.4 31.7 15.4.6 0 6.7 2.7 13.7 6.1 7 3.3 13.3 5.8 14.1 5.5.8-.3 2.7-.1 4.2.5 2.7 1.1 4.8 1.6 18.2 4.4 4.1.9 8.3 2 9.4 2.6 1.2.7 3.8.7 8.5 0 3.6-.6 7.7-1 9.1-1 1.4.1 4.9-.2 7.8-.6l5.3-.8-1.1 2.7c-1.5 4-1.2 13.7.5 16.9.8 1.6 1.8 6.4 2.1 10.8.4 4.4 1.1 8.2 1.5 8.5.5.3.9 3.8.9 7.8 0 4.4.5 7.7 1.2 8.4.7.7 2 5.7 2.9 11 .9 5.3 3.1 16.7 4.9 25.2 1.7 8.5 3.6 18.2 4.1 21.5 2.3 13.7 5.5 25.7 10.1 38 4.9 13 10.2 23.3 12.6 24.2.6.3 1.2 1.5 1.2 2.7 0 1.2 2.3 5.8 5 10.1 2.8 4.4 5 8.7 4.9 9.5-.3 3.1.2 4 5.4 10.2 2.9 3.5 6 7.4 6.9 8.8 2.3 3.6 25.9 23.3 35.5 29.7 3.4 2.3 5 4 4.6 4.9-.4 1 1.5 2.4 6.5 4.6 5.2 2.3 7.2 3.7 7.7 5.5.3 1.3 1.3 2.3 2.3 2.3 5.7 0 27.8 3.3 30 4.4 1.5.7 5 1.6 7.8 2 2.9.3 6.5 1.3 8 2.1 3.2 1.6 24.7 4.8 42.9 6.5 17.3 1.6 54.2-1 56.6-3.9 1.3-1.5 4.7-2.5 14.5-4.2 7.1-1.2 13.6-2.8 14.4-3.4 2-1.6 11-4.6 12-4 .4.3 2.9-.3 5.5-1.2 4-1.3 5.4-1.4 8.2-.4 3.2 1.2 3.9 1 12.8-3.8 5.2-2.8 10.1-4.8 10.9-4.5.7.3 4.9-1.9 9.2-4.8 4.4-3 12.3-7.8 17.6-10.7 9.9-5.3 11.9-7.1 11.1-10-.5-1.9 11.9-8.7 15.2-8.3 1.2.2 4.1-1.5 7-3.9 2.8-2.3 10.9-8.6 18-13.9 7.2-5.4 16.8-13.6 21.5-18.4 4.6-4.7 8.9-8.6 9.4-8.6 1.4 0 7.3-5.4 25.3-23 20.3-19.8 26-26.4 38.2-44 5.2-7.4 10.2-14.2 11.2-15 2.3-1.9 10.3-15.1 17-28 2.8-5.6 6.8-12.4 8.8-15.1 2-2.7 5.1-7.5 6.9-10.6 1.8-3.2 4.6-7.4 6.3-9.3 3.8-4.3 5.7-7.9 10.3-19.7 1.9-5 4.7-11.6 6.1-14.7 1.4-3 2.5-5.9 2.5-6.5 0-1.7 10.3-21.5 11.6-22.3 1.8-1.1 11.4-25.2 11.4-28.7 0-1.6.4-3.2.9-3.5.4-.3 2.3-5.6 4.1-11.7 2.6-9 3-11.3 1.9-12-1.1-.6-1-.9.3-1.4 1.6-.6 3.1-5.7 8.8-30 4.2-17.8 4.1-17.5 3.1-17.5-.5 0 .5-5.3 2.1-11.7 1.6-6.5 2.7-12.8 2.5-14.1-.2-1.3.2-5.7 1-9.9s1.2-8.5 1-9.5c-.3-1-.1-2 .4-2.3 1.9-1.2 4-14.9 6.5-42.2.4-4 1.2-7.9 1.8-8.6 1.3-1.6 9.6-4.6 21.1-7.7 4.4-1.2 11.9-3.2 16.6-4.6 4.7-1.3 9.9-2.4 11.5-2.4 1.5 0 6.9-1.1 11.9-2.4 10.3-2.8 41.7-10.3 45.7-10.9 2.5-.4 2.7-.1 3.7 5.8.6 3.4 1.1 7.3 1.1 8.6 0 3 5.7 28.4 6.9 30.7.4.9 1.4 6 2 11.2 1.5 11 3 18.1 4.2 19.4.5.6.9 2.5.9 4.4 0 4.9 2.2 17.5 3.2 18.9.6.7 1.1 4.1 1.3 7.5.2 3.5 1.5 10.3 3 15.3 1.4 4.9 3.1 11.2 3.7 14 .5 2.7 2.1 8.5 3.4 12.8 1.4 4.3 2.8 11.3 3.3 15.5 1.4 12.5 14.9 48.2 20.5 54.4 1.9 2.1 3.8 4.8 4.2 6 1.5 5.2 5.6 11.9 8.3 13.9 1.7 1.2 2.7 2.8 2.4 3.7-.2 1 2 4.8 5.1 8.8 3 3.9 6.6 9.5 8.1 12.3 1.4 2.9 3.1 5.1 3.8 4.8 1.1-.3 4.7 3.3 4.7 4.7 0 2.7 22.4 26.8 34.3 37 6.4 5.4 23.8 14.6 27.8 14.6 1.5 0 5.8 1.4 9.6 3.1 3.7 1.7 8.2 3.1 9.8 3.1 1.7-.1 5.5.6 8.6 1.3 3.1.8 7.1 1.5 8.8 1.5 1.6 0 7.6 1.2 13.2 2.6 9.3 2.3 11 2.5 18.8 1.6 10-1.2 42.5-7.8 45.2-9.3 1.1-.5 1.9-1.9 1.9-2.9 0-2.3 1.5-2.7 2.3-.5.5 1.2 1.3 1.1 5.4-.7 2.6-1.1 8.2-4.2 12.3-6.9 5.4-3.4 7.6-4.4 7.8-3.4.2 1 1.7.5 5.5-1.9 2.9-1.8 6.8-4.1 8.7-5 1.9-1 5.3-4 7.5-6.6 2.2-2.7 5.4-5.9 7.2-7 1.8-1.2 3.4-2.9 3.7-3.8.3-.9 4-4.6 8.2-8.2 4.1-3.6 10.3-9.4 13.7-13 3.4-3.6 9.1-9.2 12.7-12.5 17.9-16.5 25.7-25.1 38.5-42.6 14.1-19.2 17.5-24.3 17.5-26.3 0-1.2 2.1-5.5 4.7-9.6 5.1-8.2 12.3-23.5 12.3-26.2 0-1 2.5-7 5.5-13.5 5.6-11.7 6.4-14.2 6.9-20 .5-5.2 7.8-26.5 10.9-31.6 3.2-5.3 9.2-27.7 10.6-39.7.5-4.1 1.6-11.1 2.4-15.5.8-4.4 1.8-12.5 2.2-18 .4-5.5 1.2-10.6 1.8-11.3.7-.9 1.1-8.7 1.1-21 .1-11.9.5-20 1.1-20.4.6-.4 1.9-.8 3-.8s3.4-.7 5-1.6c1.7-.9 5.3-2.3 8-3.1 2.8-.8 5.9-2.3 7-3.3 1.1-.9 3.5-2.2 5.4-2.9 4.2-1.4 9.3-6.8 8.6-9.1-.3-1 .1-2.9.8-4.3 1-2 1.1-3.9.4-7.9-1.5-8.2-1.4-8.1-4.7-7.5-2.4.5-3.8-.1-8.2-3.9-2.9-2.5-8.7-6.2-12.8-8.2-4.1-1.9-8-4.1-8.6-4.7-1.8-1.8-2.6-6.5-2.8-17-.2-5.5-1-12.7-1.9-16-2.1-7.5-2.7-22.5-1-22.5 3 0 2.2-4.2-2.8-14.2-2.8-5.7-6.1-11.7-7.4-13.4-1.6-2.1-2-3.5-1.4-4.6.6-1.1.2-2.4-1.1-4.1-1.1-1.4-2-3.2-2-4 0-1.5-7-6.2-15.9-10.7-2.4-1.2-5.3-3.2-6.5-4.4-1.1-1.3-5.2-3.3-9.1-4.5-3.8-1.3-8.3-2.8-10-3.3-18.7-6.3-33.9-8.5-47.4-6.7-5 .6-7.8.6-8.5-.1-1.1-1.1-2.4-1.1-8.1.1zm38.4 6c4.3.6 6.9 1.6 7.8 2.8.7 1 2.6 2.1 4.2 2.4 1.7.4 7.3 2.5 12.5 4.7s10.4 4 11.6 4c1.1 0 4.4 1.7 7.3 3.8 2.9 2.1 6.2 4.4 7.5 5.1 1.2.6 2.2 1.8 2.2 2.6s.6 2.9 1.4 4.7c.8 1.8 1.7 4.4 2 5.8.3 1.4 2.3 4.7 4.4 7.5 2.4 3.2 5.1 8.9 7.4 15.5 4.6 13.2 4.9 14.8 5.2 26.7.2 5.4.7 12.1 1.1 15l.7 5.2-6.3-2c-5-1.6-12-2.4-31.9-3.4-14-.8-30.2-1.9-36-2.5-27.4-3-34.5-3.9-47.5-6.3-31-5.7-41.1-7.1-54-7.2-9.7-.2-13.8-.6-16-1.8-1.6-.9-8.4-2.3-15-3.2-6.6-.9-19-2.7-27.5-4-8.5-1.3-18-2.4-21-2.4s-8.2-.8-11.5-1.6c-3.3-.9-9.3-1.9-13.4-2.2-5.5-.5-8-1.1-10-2.8-5.6-4.7-11.3-6.7-32.1-11.2-2.3-.5-2.2-.7 2-2.5 2.5-1.1 5.4-2.8 6.5-3.8 2.1-1.8 9.6-4.3 26.3-8.5 5.6-1.4 15.3-4.4 21.5-6.6 6.1-2.2 16.5-5.4 23-7 11.8-2.9 15-4.1 17.4-6.5.7-.7 3.2-1.5 5.5-1.9 2.4-.4 9-1.8 14.8-3.2 5.8-1.3 13.7-2.7 17.5-2.9 9.8-.7 26.9-4 33.5-6.5 6.3-2.4 16.6-3.7 36.5-4.5 7.7-.3 16.5-1 19.5-1.4 8.2-1.1 15.7-1.1 22.9.1zm-853.4 20.1c-1.6.6-6.8 2.6-11.5 4.6-12.6 5.2-18.3 7.2-18.8 6.7-.3-.2.8-.9 2.4-1.5 1.6-.6 6.5-2.7 10.9-4.7 7.9-3.6 15.6-6.1 18.5-6.1.8 0 .2.4-1.5 1zM873 173c0 .5-.8 1-1.7 1-1.5 0-1.6-.2-.3-1 1.9-1.2 2-1.2 2 0zm-14.5 7.8c-2.2 1.9-8.8 5.5-8.1 4.4.4-.7 2.4-2.1 4.4-3.2 4.1-2.1 5.1-2.4 3.7-1.2zm651.5 2.6c0 .8-7.7 5.3-10.8 6.4-1.8.6-4.7 2.1-6.4 3.3-2.4 1.7-4.3 2.2-9.1 2-3.4-.1-6.2-.3-6.4-.5-.2-.1 4.3-1.5 10-3.1 5.6-1.5 10.8-3.3 11.6-3.9 2.4-1.9 11.1-5.2 11.1-4.2zm-691 20c0 .2-1.8 1.5-4 3-2.2 1.4-4 2.2-4 1.7 0-.5 1.5-1.8 3.3-2.9 3.1-2 4.7-2.6 4.7-1.8zm588.7 11.2c2.4.2 9.3 1.6 15.5 3.1 6.2 1.5 13.3 2.7 15.8 2.6 2.5-.1 5.5 0 6.8.3 2.1.4 1.8.9-3.5 5.4-3.2 2.7-6.3 5-6.9 5-.5 0-2.5 1.6-4.4 3.5-1.9 2-4 3.3-4.7 3.1-.7-.3-4.8 3.8-9.5 9.6-4.6 5.6-9.6 11.6-11.3 13.4-1.6 1.7-4.8 6.8-7 11.3-2.1 4.5-4.5 8.1-5.3 8.1-1.7 0-3.5 4.5-5.8 14.5-1 4.4-2.4 8.4-3.1 8.8-.7.4-1.3 1.5-1.3 2.3 0 .9-.6 3-1.4 4.7-.8 1.8-1.7 5.4-2 8.2-.8 7.3-2.4 18.5-3.1 22-.6 2.9-.8 3-5.8 2.7-3.5-.2-9.3.8-18.2 3.1-7.1 1.9-16.1 4.2-20 5.2-3.8.9-10.2 2.6-14.2 3.6-3.9 1-8.2 1.9-9.5 1.9-3.1 0-26.4 5.7-29 7.1-1.1.6-3.1 1.3-4.5 1.5-1.4.3-4.7 1.6-7.3 2.9-5.4 2.7-6.6 2-4.3-2.7 3.2-6.2-3.4-26.7-11.4-35.3-1-1.1-2.6-3.8-3.6-6-2.4-5-10.5-16.5-11.7-16.5-.5 0-1.7-1.4-2.6-3.2-2.8-5.5-8.6-10.4-14.5-12.3-3-.9-8.1-3-11.5-4.6-3.4-1.6-8.8-3.7-12-4.8-3.2-1-8.1-2.8-10.9-3.9-2.7-1.2-6.5-2.6-8.2-3.3-2-.7-3.3-1.8-3.3-2.9 0-1-.6-2.3-1.4-2.9-1.2-1-10-2.8-15.6-3.2-3.7-.2 12.3-3 19.5-3.4 4.4-.2 11.2-1.3 15-2.4 3.9-1.2 14.4-3.7 23.5-5.6 9.1-2 23.7-5.4 32.5-7.6 8.8-2.3 20.7-5.2 26.5-6.5 13.8-3 36.2-8.8 37.6-9.6.5-.4 7.5-2.1 15.5-3.8 7.9-1.8 14.7-3.7 15-4.2.9-1.3 16.5-5 20.9-4.9 2.9 0 12.7-1.9 26.5-5.3 1.1-.3 4.7-.2 8 .1 3.3.3 7.9.7 10.2.9zM787 222.4c0 .5-12 7.6-12.8 7.6-.4 0 2-1.8 5.3-4 5.5-3.7 7.5-4.6 7.5-3.6zm680 2.5c.3.5 4.7 1.4 9.8 2 8.9 1.1 9.4 1.3 12.7 5 1.9 2.1 5.9 4.9 8.8 6.2 4.6 2.1 7 2.4 22.4 2.7 17.5.4 24.5-.4 31-3.5 2.8-1.3 4.3-1.4 8.6-.5 5.5 1.1 21.2 3.1 23.7 3 1.7 0 20.1 1.6 42.5 3.8 24.6 2.4 36.6 4.4 42 6.9 3.6 1.6 7.6 2.5 14 2.9 8.8.6 32.9 4.2 47.1 7.1 3.9.8 13.6 2.2 21.5 3 23.5 2.6 48.9 6.4 57.4 8.7 5.7 1.5 11.6 2.2 20.5 2.4 6.9.2 14 .6 15.9.9 3.3.6 3.3.6 2.5 4.8-.4 2.3-.8 14.8-.8 27.7-.1 15.5-.5 24.2-1.2 25.5-.7 1.1-1.5 4.9-1.9 8.5-.9 9.2-4.2 30-6.2 39.9-1.3 6.5-1.4 8.7-.5 10.2 1.8 2.8-1.7 25.7-4.3 28.9-.7.8-2.3 6-3.5 11.5-1.2 5.5-2.8 10.7-3.5 11.5-.8.8-3.7 9.4-6.5 19-2.9 9.6-7.4 22.3-10.1 28.1-2.7 5.8-4.9 11-4.9 11.6 0 .6-1.3 3.7-3 6.9-1.6 3.2-3 6.9-3 8.1 0 1.1-1.6 4-3.5 6.3-2 2.3-6.3 9-9.8 14.8-3.4 5.8-8.5 13.1-11.3 16.1-2.8 3.1-7.5 9-10.6 13.1-3 4.1-8.3 10.9-11.9 15-8.2 9.6-42.8 44-44.2 44-1.5 0-6.7 5.1-6.7 6.5 0 .7-2.1 2.3-4.7 3.8-2.7 1.4-6.4 4.2-8.2 6.1-1.9 2-4 3.6-4.6 3.6-.7 0-2 .9-3 2s-2.4 2-3.1 2c-.7 0-3.7 2.1-6.8 4.6-3.1 2.5-8.2 5.7-11.4 7.1-3.1 1.4-7.2 3.2-9.1 4-4 1.8-24.7 7-31.3 7.9-2.6.4-5.3 1.3-5.9 2-.6.8-1.4 1.2-1.8 1-.3-.2-11.4-1.1-24.6-2-13.2-.9-26.5-2.3-29.5-3-3-.8-8.3-1.9-11.7-2.5-6.6-1.2-15.3-4.4-19.3-7.2-1.4-.9-5.6-3.2-9.5-5.2-4.3-2.1-10.4-6.6-15.6-11.4-8.8-8.1-16.9-16.8-16.9-18.2 0-.5-2.4-3.5-5.2-6.8-10.5-11.8-14.4-16.6-19.3-23.7-2.7-4-6-8.7-7.3-10.4-1.3-1.8-2.1-3.2-1.7-3.2.3 0-.6-1.7-2-3.7-1.4-2.1-2.5-4.3-2.5-5 0-.7-1.2-2.9-2.6-5-6.9-10.2-24.9-54.2-27.6-67.3-1-5.2-3.2-14.5-4.9-20.5-1.6-6.1-3.4-13.5-4-16.5-.5-3-2.1-10.5-3.4-16.5-1.3-6.1-3.4-16.4-4.5-23-1.2-6.6-2.8-14.3-3.5-17-.8-2.8-1.9-9.5-2.5-15-1.9-16.3-4.1-28.7-6.1-34-2.3-6-2.5-12.8-.5-14.4 1-.9 1.6-4 1.8-9.9.7-14.7 5.2-34.6 10.4-46.2 6.9-15.3 17-31.3 22.4-35.5 1.4-1 5.9-5.1 10-9.1 4.1-3.9 11.6-10.6 16.5-14.9l9-7.7 5.5.6c3 .4 5.7 1.1 6 1.5zM1143 272c0 2 2.9 4.2 8 5.9 2 .6 4.3 2 5.3 3.1.9 1.1 2.5 2 3.5 2 2.9 0 18.5 4.1 20.7 5.4 1.1.7 4.6 1.8 7.7 2.5 3.2.7 6 1.6 6.3 2.1.8 1.2 11.4 6 13.4 6 .9 0 2.5.6 3.6 1.3 1.1.7 4.1 2.1 6.7 3.1 4.7 1.7 10.8 7.4 10.8 10 0 .8 1.6 2.8 3.5 4.5 1.9 1.7 3.5 3.6 3.5 4.3 0 .7 1.4 3.3 3 5.8s3 5 3 5.5c0 .6 2 5.2 4.5 10.3 2.5 5 4.5 10 4.5 10.9 0 1 .9 3.3 2.1 5.2 1.6 2.6 1.9 4.4 1.5 7.5-.4 2.3.1 7.6.9 11.9.8 4.4 1.3 8.2 1 8.7-.2.4-1.2 6.3-2 13.1-.9 6.7-2.2 13.4-3 14.8-.7 1.5-1.6 7.3-1.9 13.1-.8 12.2-5.2 37.4-7.1 40.4-.7 1.2-2 5.9-3 10.6-1 4.7-2.4 8.9-3.1 9.5-.8.6-1.8 4.6-2.4 10-2.3 19.9-2.8 23.2-4.5 26.9-.9 2.1-2.8 8.4-4.1 13.9-4 16.2-10.2 33.4-15.2 42.6-2.6 4.7-5.6 10.6-6.7 13.1-1 2.5-2.9 5.9-4.2 7.6-1.2 1.7-4.7 9.4-7.7 17.2-4 10.6-6.2 14.8-8.4 16.7-1.9 1.6-6.7 9.9-13.2 22.5-6.3 12.4-11 20.5-12.3 21.2-1.2.6-2.7 1.8-3.4 2.7-1.7 2.2-17.4 27.6-20.7 33.3-6.6 11.7-26.7 33.8-30.7 33.8-.9 0-4.9 3.7-8.7 8.2-7.6 8.9-30.9 32.5-31.7 32-1.5-.7-3.3.6-11.8 8.1-9.2 8.3-15.1 12.7-32.2 24-4.9 3.3-10.4 7.2-12.2 8.8-3.7 3.2-19.4 11.9-21.5 11.9-.8 0-3.2 1.3-5.4 3-2.1 1.6-5 3-6.2 3-1.3 0-3.7.9-5.3 2.1-3.8 2.7-24.6 12.5-28.4 13.5-1.7.3-9 2.6-16.2 5-13.7 4.6-16.3 5.1-16.3 3.4 0-1.6-4.6-2.3-6.9-1-2.9 1.5-35.2 9.9-42.2 11-8.3 1.2-40.4-2.9-42.2-5.4-1.5-2-7.7-3.5-15-3.6-2.6 0-12.8-1.6-22.5-3.5s-20.2-3.6-23.3-3.9c-3.1-.2-6.5-.9-7.7-1.5-1.1-.6-2.9-1.1-3.9-1.1-2.5 0-8.5-4.4-10-7.5-1.3-2.3-3.3-3.8-19.3-14-4-2.6-10.3-7.5-13.8-10.9-6.9-6.5-16.2-19.6-16.2-22.8 0-1-2-5.3-4.3-9.6-7.9-14-17.5-32.6-20.2-39.2-1.4-3.6-3.5-7.3-4.6-8.2-1.6-1.4-3-6.9-6.9-27.8-2.7-14.3-5.4-27.5-5.9-29.3-3.7-11.3-7.1-37-7.1-53.7 0-10-.3-13-1.6-14.9-1.4-1.9-1.4-2.6-.3-4.7 1.1-2.1 1-5.3-.4-19.3-.9-9.2-1.4-17.6-1.2-18.7.2-1 .6-3.7.9-5.9.8-7.2 4.6-30.9 5.7-35.5.6-2.5 2.1-10.6 3.4-18 2.1-11.9 2.2-13.8.9-15.8-.8-1.2-1-2.2-.5-2.2 1.5 0 2.2-3.3 3.1-15.1.7-10.3 1-11.3 3.4-13.3 1.4-1.1 3.9-5.3 5.4-9.1 1.6-3.9 3.4-7.9 4-9 .7-1.1 4.1-8.3 7.6-16.1 7.3-16.1 16.3-30.9 22.7-37.3 4.3-4.4 18.4-14.1 20.5-14.1.6 0 8.7-4 18.1-8.9 9.3-4.8 20.8-10.1 25.4-11.6 23.9-7.9 57.6-20.8 59.5-22.8 1.3-1.5 7.3-3.9 17.5-7 31.8-10 47.5-15.1 50.2-16.4 2.9-1.5 34-9.7 49.8-13.3 4.7-1 9.6-2.4 11-2.9 6.7-3 26.7-7.8 30.4-7.4 2.8.3 8.4-.9 19-4.1 20.5-6.2 48.1-12.9 67.7-16.5 9-1.7 17.8-3.3 19.6-3.7 2.1-.4 3.2-.3 3.2.5 0 1.7 4.2 1.3 14.8-1.3 5.3-1.3 15.8-3.4 23.2-4.6 7.4-1.2 13.6-2.3 13.7-2.3.1-.1 2.7-.3 5.7-.4 4.8-.1 5.6.1 5.6 1.7zm714.3 28.4c.3.8-.1 1.7-.9 2-.9.4-1.4-.1-1.4-1.4 0-2.3 1.5-2.7 2.3-.6zM698 333.3c0 .2-1 1.2-2.2 2.3l-2.3 1.9 1.9-2.3c1.8-2.1 2.6-2.7 2.6-1.9zm-4 5.1c0 .2-.8 1-1.7 1.7-1.6 1.3-1.7 1.2-.4-.4 1.3-1.6 2.1-2.1 2.1-1.3zM668.5 352c-.3.5-1.8 1-3.3 1-2.1 0-2.4-.2-1.2-1 2-1.3 5.3-1.3 4.5 0zm36.5 35c-.8.5-2.2 1-3 1-1.3 0-1.3-.1 0-1 .8-.5 2.2-1 3-1 1.3 0 1.3.1 0 1zm-481.2 42.4c9.6 5.4 14.9 8.6 14 8.6-.7 0-25.1-12.9-25.8-13.7-1.3-1.4 4.7 1.2 11.8 5.1zM246 441c0 1.3-1.1 1.3-3 0-1.2-.8-1.1-1 .8-1 1.2 0 2.2.4 2.2 1zm31.6 18.7c-.4.5-11.6-5.6-11.6-6.4 0-.2 2.7 1 6 2.8 3.3 1.8 5.8 3.4 5.6 3.6zm8.4 4.9c0 .2-1.3-.2-3-1.1-1.6-.9-3-1.8-3-2.1 0-.2 1.4.2 3 1.1 1.7.9 3 1.8 3 2.1zm33.8 18.7c.7.5 1.1 1.2.9 1.4-.5.5-16.6-8.7-17.3-9.9-.6-.9 13.8 6.5 16.4 8.5zm85.9 45.6c1 .6 1.5 1.1 1.1 1.1-1.2 0-17.8-7.8-17.8-8.4 0-.5 13 5.2 16.7 7.3zm217 56.3c-.3.8-.6.5-.6-.6-.1-1.1.2-1.7.5-1.3.3.3.4 1.2.1 1.9zm-33.4 10.5c-.7.2-1.9.2-2.5 0-.7-.3-.2-.5 1.2-.5s1.9.2 1.3.5zM553 599c.8.5 1.1 1 .5 1-.5 0-1.7-.5-2.5-1s-1-1-.5-1c.6 0 1.7.5 2.5 1z"/></svg>